<svg width="41" height="40" viewBox="0 0 41 40" fill="none" xmlns="http://www.w3.org/2000/svg">
<path d="M7.16699 14.4443H12.7225V33.3332H7.16699V14.4443ZM9.9281 12.2221H9.89699C8.23921 12.2221 7.16699 10.9865 7.16699 9.44317C7.16699 7.8665 8.27255 6.6665 9.96033 6.6665C11.6503 6.6665 12.6914 7.8665 12.7225 9.44317C12.7225 10.9854 11.6503 12.2221 9.9281 12.2221ZM33.8337 33.3332H28.2781V23.2232C28.2781 20.7809 26.917 19.1143 24.7314 19.1143C23.0637 19.1143 22.1614 20.2387 21.7237 21.3254C21.5637 21.7143 21.6114 22.7898 21.6114 23.3332V33.3332H16.0559V14.4443H21.6114V17.3509C22.4125 16.1109 23.667 14.4443 26.8759 14.4443C30.8514 14.4443 33.8325 16.9443 33.8325 22.5265L33.8337 33.3332Z" fill="white"/>
</svg>
