<svg width="41" height="40" viewBox="0 0 41 40" fill="none" xmlns="http://www.w3.org/2000/svg">
<path d="M36.5569 6.71855C35.1985 7.36022 32.8869 8.56355 31.7252 8.79355C31.6802 8.80522 31.6435 8.82022 31.6002 8.83189C30.2452 7.49522 28.3885 6.66689 26.3335 6.66689C22.1919 6.66689 18.8335 10.0252 18.8335 14.1669C18.8335 14.3852 18.8152 14.7869 18.8335 15.0002C13.4702 15.0002 9.55355 12.2019 6.62188 8.60522C6.23021 8.12189 5.81355 8.37355 5.72688 8.71689C5.53188 9.49355 5.46522 10.7919 5.46522 11.7186C5.46522 14.0536 7.29021 16.3469 10.1319 17.7686C9.60855 17.9036 9.03188 18.0002 8.43188 18.0002C7.72521 18.0002 6.91188 17.8152 6.20021 17.4419C5.93688 17.3036 5.36855 17.3419 5.53688 18.0152C6.21188 20.7136 9.29188 22.6086 12.0435 23.1602C11.4185 23.5286 10.0852 23.4536 9.47188 23.4536C9.24521 23.4536 8.45688 23.4002 7.94688 23.3369C7.48188 23.2802 6.76688 23.4002 7.36521 24.3069C8.65021 26.2519 11.5569 27.4736 14.0585 27.5202C11.7552 29.3269 7.98855 29.9869 4.38022 29.9869C3.65022 29.9702 3.68688 30.8019 4.27522 31.1102C6.93688 32.5069 11.2969 33.3336 14.4119 33.3336C26.7952 33.3336 33.8335 23.8952 33.8335 14.9986C33.8335 14.8552 33.8302 14.5552 33.8252 14.2536C33.8252 14.2236 33.8335 14.1952 33.8335 14.1652C33.8335 14.1202 33.8202 14.0769 33.8202 14.0319C33.8152 13.8052 33.8102 13.5936 33.8052 13.4836C34.7869 12.7752 36.2902 11.5452 37.0502 10.6036C37.3085 10.2836 37.1002 9.89522 36.7485 10.0169C35.8435 10.3319 34.2785 10.9419 33.2985 11.0586C35.2602 9.76022 36.2302 8.63022 37.0635 7.37522C37.3485 6.94689 36.9919 6.51189 36.5569 6.71855Z" fill="white"/>
</svg>
